<svg xmlns="http://www.w3.org/2000/svg" xmlns:xlink="http://www.w3.org/1999/xlink" version="1.1" x="0px" y="0px" viewBox="0 0 100 100" enable-background="new 0 0 100 100" xml:space="preserve" zn_id="1"><g zn_id="2"><g><rect x="82.773" y="10.611" transform="matrix(0.6159 0.7878 -0.7878 0.6159 43.5215 -60.6721)" width="2.413" height="7.367"/><rect x="92.482" y="3.026" transform="matrix(0.616 0.7877 -0.7877 0.616 41.2599 -71.2248)" width="2.414" height="7.368"/><rect x="70.587" y="20.674" transform="matrix(-0.7881 0.6156 -0.6156 -0.7881 146.2716 -6.5949)" width="7.368" height="2.414"/><rect x="60.783" y="17.931" transform="matrix(-0.7881 0.6155 -0.6155 -0.7881 125.9946 -5.0939)" width="6.182" height="2.416"/><rect x="70.506" y="9.923" transform="matrix(-0.6158 -0.7879 0.7879 -0.6158 105.6231 77.5298)" width="2.415" height="6.181"/><polygon points="75.689,33.374 74.202,31.472 68.975,35.556 63.377,31.924 68.209,28.15 66.722,26.248 61.235,30.534     55.78,26.994 59.213,24.312 57.726,22.41 53.638,25.604 40.763,17.25 0,45.163 3.411,50.143 40.853,24.504 79.489,49.574     82.773,44.51 71.116,36.946   "/><rect x="80.216" y="23.817" transform="matrix(-0.6159 -0.7878 0.7878 -0.6159 110.0192 108.3607)" width="2.415" height="7.09"/><rect x="89.487" y="16.575" transform="matrix(-0.6158 -0.7879 0.7879 -0.6158 130.695 103.9654)" width="2.415" height="7.088"/><rect x="68.704" y="-0.813" transform="matrix(0.6158 0.7879 -0.7879 0.6158 29.7633 -53.6696)" width="2.414" height="8.991"/><rect x="56.438" y="8.771" transform="matrix(0.6159 0.7878 -0.7878 0.6159 32.5912 -40.3177)" width="2.415" height="8.99"/></g><polygon points="81.044,100 2.562,100 2.562,97.864 81.044,97.864 81.044,100  "/></g><g zn_id="3"><circle cx="60.974" cy="48.483" r="4.475"/><g><path d="M66.147,53.893l-10.296-0.005c-3.168,0-5.621,2.584-5.621,5.808v11.053c-0.745-1.169-2.011-2.007-3.644-2.007    l-8.147-0.004c-1.296,0-2.426,0.572-3.211,1.471l-3.71-12.199c-0.475-1.431-2.239-4.027-5.389-4.027h-7.618    c-3.177,0-4.981,2.576-5.396,4.027l-3.866,12.73c-0.804,2.737,2.707,3.785,3.536,1.231l3.483-11.718h1.471l-5.986,20.771h5.577    l0.001,14.768c0,2.786,4.169,2.786,4.169,0l-0.002-14.875h1.693v14.898c0,2.747,4.155,2.763,4.155,0V81.023h5.555L26.87,60.253    h1.5l3.481,11.677c0.398,1.277,1.403,1.676,2.259,1.449v8.803c0,2.058,2.719,2.058,2.719,0v-8.688h1.225l-0.002,22.594    c0,1.066,0.865,1.932,1.931,1.932c1.068,0,1.934-0.865,1.934-1.932l0.002-11.771h1.28l-0.006,11.771    c0,1.066,0.865,1.932,1.933,1.932c1.067,0,1.932-0.865,1.932-1.932l0.009-22.594h1.214v8.688c0,2.074,2.704,2.074,2.697,0v-7.087    c1.035,0.771,2.784,0.221,2.784-1.661V60.062h1.589l-0.004,35.312c0,1.383,1.124,2.508,2.509,2.508c1.387,0,2.51-1.125,2.51-2.508    l0.003-20.072h1.381L61.74,95.374c0,1.383,1.125,2.508,2.509,2.508c1.386,0,2.508-1.125,2.508-2.508l0.012-35.312h1.575v13.371    c0,2.692,3.511,2.692,3.502,0V59.776C71.846,56.805,69.625,53.893,66.147,53.893z" zn_id="4"/><circle cx="42.283" cy="64.025" r="3.858"/></g><circle cx="22.345" cy="48.52" r="4.513"/></g></svg>